<svg width="101" height="100" viewBox="0 0 101 100" fill="none" xmlns="http://www.w3.org/2000/svg">
<path d="M11.6864 53.3698L12.2402 48.5216L12.2909 48.5274C14.1185 48.7362 14.267 46.3103 14.8305 45.6546C14.9117 44.9439 15.0515 42.5941 13.9092 42.4637C13.3508 42.3999 13.0122 43.3383 12.8643 43.7329C11.6381 47.0386 10.8886 53.1501 6.01506 52.5935C1.67451 52.0977 0.363748 48.0394 0.80153 44.2066C1.2712 40.0945 3.31174 36.1875 8.03303 36.7268L7.47348 41.6257L7.4481 41.6228C5.74742 41.4286 5.14343 43.3396 4.98977 44.6849C4.8912 45.548 5.01096 46.9759 6.12782 47.1035C8.03157 47.3209 7.9554 36.2807 14.022 36.9737C18.6164 37.4984 19.4536 42.3255 19.0187 46.133C18.5201 50.4989 16.5346 53.9236 11.6864 53.3698Z" fill="black"/>
<path d="M9.28604 70.7742L5.43398 72.1421L0.432617 58.058L4.28468 56.6901L5.90906 61.2644L18.356 56.8444L20.1087 61.7799L7.66167 66.1999L9.28604 70.7742Z" fill="black"/>
<path d="M27.4808 84.5272C23.3359 88.7284 18.5097 88.3454 14.4177 84.3082C10.9986 80.9349 9.70577 76.7524 13.4021 73.0059L16.9849 76.5407L16.949 76.577C15.4418 78.1047 15.9598 79.9078 17.3601 81.2894C19.2698 83.1735 21.7928 82.2532 23.4615 80.5618C25.0764 78.925 26.2138 76.1352 24.3041 74.2512C22.6855 72.6542 21.0213 72.3403 19.3706 74.0134L19.3167 74.068L15.7703 70.5691C19.4487 66.8408 23.8093 67.8411 27.2829 71.2683C31.4114 75.3414 31.6077 80.3443 27.4808 84.5272Z" fill="black"/>
<path d="M46.219 89.1572L43.2028 99.375L38.1797 97.8922L41.1959 87.6745C41.7166 85.9102 41.2898 84.5589 39.452 84.0164C37.6143 83.4739 36.522 84.3768 36.0012 86.141L32.985 96.3588L27.9619 94.876L30.9781 84.6583C32.403 79.8312 36.1152 78.716 40.6483 80.0541C45.1814 81.3922 47.6367 84.3546 46.219 89.1572Z" fill="black"/>
<path d="M60.563 84.7128L57.8129 85.2916C55.1878 85.844 54.1547 88.2544 54.6755 90.7295C55.2595 93.5046 57.066 94.7692 59.8411 94.1853L62.4412 93.6381L60.563 84.7128ZM64.8463 79.6342L68.4081 96.5597L60.6579 98.1906C55.0577 99.3691 50.4394 98.0174 49.1504 91.8922C47.8877 85.892 51.5209 82.4384 57.0961 81.2651L64.8463 79.6342Z" fill="black"/>
<path d="M81.0383 77.13C79.2531 75.2316 76.4574 74.4588 74.3914 76.4014C72.3254 78.3441 72.9249 81.1821 74.7101 83.0805C76.5477 85.0348 79.1171 85.5295 81.1644 83.6044C83.2118 81.6792 82.8759 79.0843 81.0383 77.13ZM85.1516 73.2622C89.2469 77.6175 88.1841 82.7901 84.0708 86.6579C79.9575 90.5257 74.7107 91.2861 70.6154 86.9308C66.5551 82.6128 67.3717 77.2157 71.5223 73.3129C75.6914 69.3926 81.0913 68.9442 85.1516 73.2622Z" fill="black"/>
<path d="M90.2863 61.4538L89.859 62.7655C89.3842 64.223 89.3529 65.5563 91.029 66.1023C92.7538 66.6642 93.6522 65.7209 94.1587 64.1662L94.586 62.8544L90.2863 61.4538ZM83.6493 53.7834L100.095 59.1407L98.0374 65.4566C96.7871 69.2947 93.7319 72.6523 89.3593 71.2279C87.2216 70.5316 85.8361 68.7636 85.4494 66.5686L79.0596 67.8727L80.8559 62.3584L86.0356 61.305L86.3996 60.1876L82.0271 58.7632L83.6493 53.7834Z" fill="black"/>
<path d="M91.1101 43.8674L91.2848 45.3646C91.4625 46.8872 92.6869 47.9018 94.2095 47.7241C95.8589 47.5317 96.4468 46.177 96.2691 44.6544L96.1093 43.2841L91.1101 43.8674ZM82.3828 39.6127L99.5625 37.6083L100.332 44.2061C100.824 48.4185 99.6049 52.5219 94.8342 53.0785C89.1499 53.7417 87.5859 48.9342 87.05 44.3411L82.9898 44.8148L82.3828 39.6127Z" fill="black"/>
<path d="M76.3417 23.6783L78.1975 25.7887C79.9689 27.8032 82.5759 27.5181 84.4753 25.8478C86.6049 23.9752 86.8182 21.7804 84.9456 19.6507L83.191 17.6554L76.3417 23.6783ZM69.8135 22.4446L82.8022 11.023L88.0322 16.9706C91.8112 21.2682 92.9043 25.9545 88.2037 30.0879C83.5992 34.1369 78.8056 32.6706 75.0434 28.3921L69.8135 22.4446Z" fill="black"/>
<path d="M59.6702 9.58063C58.8956 12.0688 59.5983 14.883 62.306 15.7259C65.0137 16.5688 67.1895 14.6506 67.9641 12.1624C68.7614 9.60108 67.928 7.12079 65.2447 6.2855C62.5614 5.45021 60.4675 7.01929 59.6702 9.58063ZM54.2792 7.90247C56.056 2.19433 61.0822 0.574772 66.4732 2.25293C71.8642 3.9311 75.1076 8.12485 73.3307 13.833C71.569 19.4923 66.4685 21.4366 61.0287 19.7433C55.5645 18.0423 52.5175 13.5618 54.2792 7.90247Z" fill="black"/>
<path d="M36.5749 11.0585C37.2687 13.5704 39.3814 15.5578 42.1149 14.8028C44.8484 14.0478 45.6416 11.2577 44.9478 8.74587C44.2336 6.16011 42.1914 4.52425 39.4826 5.27247C36.7737 6.02068 35.8607 8.47277 36.5749 11.0585ZM31.1325 12.5618C29.5408 6.79922 32.8932 2.71917 38.3356 1.21595C43.778 -0.287282 48.7739 1.4869 50.3655 7.24944C51.9436 12.9627 48.7042 17.3561 43.2126 18.8729C37.6963 20.3966 32.7105 18.275 31.1325 12.5618Z" fill="black"/>
<path d="M15.0297 27.4794C10.8899 23.6025 11.1364 18.443 14.9086 14.4151C17.7202 11.4128 22.2833 9.4557 25.7331 12.6865L22.2928 16.3601L22.2741 16.3426C20.8569 15.0154 19.1031 16.1032 18.0029 17.278C16.1343 19.2733 17.1362 21.7167 18.8891 23.3583C21.015 25.3492 23.4033 25.9758 25.5688 23.6635C26.4246 22.7497 27.6142 20.9936 26.6338 19.7605L23.3856 23.2289L20.402 20.4347L27.1255 13.2554C31.8993 17.7261 33.2212 21.6593 28.279 26.9366C24.3497 31.1323 19.2627 31.4437 15.0297 27.4794Z" fill="black"/>
<path d="M45.7695 49.8956C45.7695 47.0395 48.0849 44.7241 50.941 44.7241C53.7971 44.7241 56.1124 47.0395 56.1124 49.8956C56.1124 52.7517 53.7971 55.067 50.941 55.067C48.0849 55.067 45.7695 52.7517 45.7695 49.8956Z" fill="black"/>
</svg>
